<svg width="32" height="32" viewBox="0 0 32 32" fill="none" xmlns="http://www.w3.org/2000/svg">
<mask id="mask0_642_1090" style="mask-type:alpha" maskUnits="userSpaceOnUse" x="0" y="0" width="32" height="32">
<path fill-rule="evenodd" clip-rule="evenodd" d="M25.3334 7.99998H6.66675C5.93037 7.99998 5.33341 8.59693 5.33341 9.33331V10.6666H16.0001H26.6667V9.33331C26.6667 8.59693 26.0698 7.99998 25.3334 7.99998ZM29.3334 10.6666V13.3333V22.6666C29.3334 24.8758 27.5426 26.6666 25.3334 26.6666H6.66675C4.45761 26.6666 2.66675 24.8758 2.66675 22.6666V13.3333V10.6666V9.33331C2.66675 7.12417 4.45761 5.33331 6.66675 5.33331H25.3334C27.5426 5.33331 29.3334 7.12417 29.3334 9.33331V10.6666ZM5.33341 13.3333V22.6666C5.33341 23.403 5.93037 24 6.66675 24H25.3334C26.0698 24 26.6667 23.403 26.6667 22.6666V13.3333H16.0001H5.33341ZM8.00008 18C8.00008 17.6318 8.29856 17.3333 8.66675 17.3333H12.6667C13.0349 17.3333 13.3334 17.6318 13.3334 18V20.6666C13.3334 21.0348 13.0349 21.3333 12.6667 21.3333H8.66675C8.29856 21.3333 8.00008 21.0348 8.00008 20.6666V18Z" fill="#343434"/>
</mask>
<g mask="url(#mask0_642_1090)">
<rect width="32" height="32" fill="#6E5DC6"/>
</g>
</svg>
