<svg width="24" height="24" viewBox="0 0 24 24" fill="none" xmlns="http://www.w3.org/2000/svg">
<g id="Icon / Social / Apple">
<path id="Vector" d="M20.7024 8.1816C20.5648 8.2896 18.1347 9.6744 18.1347 12.7536C18.1347 16.3152 21.2269 17.5752 21.3194 17.6064C21.3052 17.6832 20.8282 19.332 19.6891 21.012C18.6734 22.4904 17.6127 23.9664 15.9989 23.9664C14.3852 23.9664 13.9699 23.0184 12.1071 23.0184C10.2916 23.0184 9.64614 23.9976 8.17007 23.9976C6.694 23.9976 5.66407 22.6296 4.47989 20.9496C3.10824 18.9768 2 15.912 2 13.0032C2 8.3376 4.9996 5.8632 7.95175 5.8632C9.52037 5.8632 10.828 6.9048 11.8128 6.9048C12.7502 6.9048 14.212 5.8008 15.9966 5.8008C16.6729 5.8008 19.103 5.8632 20.7024 8.1816ZM15.1494 3.8256C15.8874 2.94 16.4095 1.7112 16.4095 0.4824C16.4095 0.312 16.3953 0.1392 16.3644 0C15.1636 0.0456 13.735 0.8088 12.8736 1.8192C12.1972 2.5968 11.566 3.8256 11.566 5.0712C11.566 5.2584 11.5968 5.4456 11.6111 5.5056C11.687 5.52 11.8104 5.5368 11.9338 5.5368C13.0112 5.5368 14.3662 4.8072 15.1494 3.8256Z" fill="black"/>
</g>
</svg>
