<svg width="32" height="32" viewBox="0 0 32 32" fill="none" xmlns="http://www.w3.org/2000/svg">
<mask id="mask0_642_846" style="mask-type:alpha" maskUnits="userSpaceOnUse" x="0" y="0" width="32" height="32">
<path fill-rule="evenodd" clip-rule="evenodd" d="M8.00008 3.33329C8.00008 2.9651 8.29856 2.66663 8.66675 2.66663H10.0001C10.3683 2.66663 10.6667 2.9651 10.6667 3.33329V5.33329H21.3334V3.33329C21.3334 2.9651 21.6319 2.66663 22.0001 2.66663H23.3334C23.7016 2.66663 24.0001 2.9651 24.0001 3.33329V5.33329H25.3334C27.5426 5.33329 29.3334 7.12415 29.3334 9.33329V25.3333C29.3334 27.5424 27.5426 29.3333 25.3334 29.3333H6.66675C4.45761 29.3333 2.66675 27.5424 2.66675 25.3333V9.33329C2.66675 7.12415 4.45761 5.33329 6.66675 5.33329H8.00008V3.33329ZM25.3334 12H6.66675C5.93037 12 5.33341 12.5969 5.33341 13.3333V25.3333C5.33341 26.0697 5.93037 26.6666 6.66675 26.6666H25.3334C26.0698 26.6666 26.6667 26.0697 26.6667 25.3333V13.3333C26.6667 12.5969 26.0698 12 25.3334 12ZM8.00008 15.3333C8.00008 14.9651 8.29856 14.6666 8.66675 14.6666H10.6667C11.0349 14.6666 11.3334 14.9651 11.3334 15.3333V17.3333C11.3334 17.7015 11.0349 18 10.6667 18H8.66675C8.29856 18 8.00008 17.7015 8.00008 17.3333V15.3333ZM20.6667 15.3333C20.6667 14.9651 20.9652 14.6666 21.3334 14.6666H23.3334C23.7016 14.6666 24.0001 14.9651 24.0001 15.3333V17.3333C24.0001 17.7015 23.7016 18 23.3334 18H21.3334C20.9652 18 20.6667 17.7015 20.6667 17.3333V15.3333ZM15.0001 14.6666C14.6319 14.6666 14.3334 14.9651 14.3334 15.3333V17.3333C14.3334 17.7015 14.6319 18 15.0001 18H17.0001C17.3683 18 17.6667 17.7015 17.6667 17.3333V15.3333C17.6667 14.9651 17.3683 14.6666 17.0001 14.6666H15.0001Z" fill="#343434"/>
</mask>
<g mask="url(#mask0_642_846)">
<rect width="32" height="32" fill="#292929"/>
</g>
</svg>
