<svg width="24" height="24" viewBox="0 0 24 24" fill="none" xmlns="http://www.w3.org/2000/svg">
<g id="Icon / Social / Google" clip-path="url(#clip0_548_1011)">
<path id="Vector" d="M5.31891 14.5034L4.4835 17.6221L1.43011 17.6867C0.517594 15.9942 0 14.0578 0 11.9999C0 10.0101 0.483938 8.13356 1.34175 6.48126H1.34241L4.06078 6.97964L5.25159 9.6817C5.00236 10.4083 4.86652 11.1883 4.86652 11.9999C4.86661 12.8808 5.02617 13.7248 5.31891 14.5034Z" fill="#FBBB00"/>
<path id="Vector_2" d="M23.7903 9.75818C23.9281 10.4841 24 11.2338 24 11.9999C24 12.8591 23.9097 13.6971 23.7376 14.5054C23.1534 17.2562 21.627 19.6582 19.5125 21.358L19.5119 21.3573L16.088 21.1826L15.6034 18.1575C17.0064 17.3347 18.1029 16.047 18.6805 14.5054H12.2638V9.75818H18.7741H23.7903Z" fill="#518EF8"/>
<path id="Vector_3" d="M19.5119 21.3574L19.5125 21.3581C17.4561 23.011 14.8437 24.0001 12 24.0001C7.43011 24.0001 3.45694 21.4458 1.43011 17.6869L5.31891 14.5036C6.3323 17.2082 8.94132 19.1335 12 19.1335C13.3147 19.1335 14.5464 18.7781 15.6033 18.1576L19.5119 21.3574Z" fill="#28B446"/>
<path id="Vector_4" d="M19.6595 2.76262L15.7721 5.94525C14.6782 5.26153 13.3852 4.86656 12 4.86656C8.87206 4.86656 6.21425 6.88017 5.25163 9.68175L1.34239 6.48131H1.34174C3.33889 2.63077 7.36217 0 12 0C14.9116 0 17.5813 1.03716 19.6595 2.76262Z" fill="#F14336"/>
</g>
<defs>
<clipPath id="clip0_548_1011">
<rect width="24" height="24" fill="white"/>
</clipPath>
</defs>
</svg>
