<svg width="32" height="32" viewBox="0 0 32 32" fill="none" xmlns="http://www.w3.org/2000/svg">
<mask id="mask0_642_495" style="mask-type:alpha" maskUnits="userSpaceOnUse" x="0" y="0" width="32" height="32">
<path fill-rule="evenodd" clip-rule="evenodd" d="M25.3334 8.00004H6.66669C5.93031 8.00004 5.33335 8.59699 5.33335 9.33337V10.6667H16H26.6667V9.33337C26.6667 8.59699 26.0697 8.00004 25.3334 8.00004ZM29.3334 10.6667V13.3334V22.6667C29.3334 24.8758 27.5425 26.6667 25.3334 26.6667H6.66669C4.45755 26.6667 2.66669 24.8758 2.66669 22.6667V13.3334V10.6667V9.33337C2.66669 7.12424 4.45755 5.33337 6.66669 5.33337H25.3334C27.5425 5.33337 29.3334 7.12424 29.3334 9.33337V10.6667ZM5.33335 13.3334V22.6667C5.33335 23.4031 5.93031 24 6.66669 24H25.3334C26.0697 24 26.6667 23.4031 26.6667 22.6667V13.3334H16H5.33335ZM8.00002 18C8.00002 17.6319 8.2985 17.3334 8.66669 17.3334H12.6667C13.0349 17.3334 13.3334 17.6319 13.3334 18V20.6667C13.3334 21.0349 13.0349 21.3334 12.6667 21.3334H8.66669C8.2985 21.3334 8.00002 21.0349 8.00002 20.6667V18Z" fill="#343434"/>
</mask>
<g mask="url(#mask0_642_495)">
<rect width="32" height="32" fill="#292929"/>
</g>
</svg>
