<svg width="32" height="32" viewBox="0 0 32 32" fill="none" xmlns="http://www.w3.org/2000/svg">
<path fill-rule="evenodd" clip-rule="evenodd" d="M19.6666 6.33335C19.6666 8.3584 18.025 10 16 10C13.9749 10 12.3333 8.3584 12.3333 6.33335C12.3333 4.30831 13.9749 2.66669 16 2.66669C18.025 2.66669 19.6666 4.30831 19.6666 6.33335ZM17.4666 6.33335C17.4666 7.14337 16.81 7.80002 16 7.80002C15.19 7.80002 14.5333 7.14337 14.5333 6.33335C14.5333 5.52334 15.19 4.86669 16 4.86669C16.81 4.86669 17.4666 5.52334 17.4666 6.33335Z" fill="#343434"/>
<path fill-rule="evenodd" clip-rule="evenodd" d="M6.79868 9.68382C5.89397 9.51418 5.02304 10.1101 4.85341 11.0148L4.36198 13.6358C4.19274 14.5384 4.78545 15.4073 5.68658 15.5798L10.6172 16.5587L9.01492 27.8596L9.01261 27.877C8.88939 28.8712 9.66485 29.7487 10.6667 29.7486L13.7407 29.7486C14.5009 29.7485 15.1647 29.2342 15.3545 28.4982L15.3582 28.4836L16.0034 25.817L16.6537 28.4852L16.6569 28.4982C16.8468 29.2342 17.5106 29.7485 18.2707 29.7486L21.3333 29.7486C22.3351 29.7487 23.1106 28.8712 22.9873 27.877L22.985 27.8596L21.3829 16.5591L26.3247 15.5799C27.226 15.4075 27.8188 14.5384 27.6495 13.6358L27.1581 11.0148C26.9884 10.1101 26.1175 9.51418 25.2128 9.68382L17.5357 11.1233C16.916 11.2395 16.5712 11.2888 16 11.2888C15.43 11.2888 15.0975 11.2398 14.4758 11.1233L6.79868 9.68382ZM6.38851 13.6802L6.75773 11.711L14.1072 13.089C14.7847 13.216 15.2538 13.2888 16 13.2888C16.7449 13.2888 17.2248 13.2164 17.9043 13.089L25.2538 11.711L25.623 13.68L19.1369 14.9652L20.9493 27.7486L18.5327 27.7486L16.9715 21.3427L15.028 21.3442L13.4783 27.7486L11.0507 27.7486L12.863 14.9656L6.38851 13.6802Z" fill="#343434"/>
</svg>
