<svg width="24" height="10" viewBox="0 0 24 10" fill="none" xmlns="http://www.w3.org/2000/svg">
<path fill-rule="evenodd" clip-rule="evenodd" d="M23.5 2C23.7761 2 24 1.77614 24 1.5V0.5C24 0.223858 23.7761 0 23.5 0H0.500001C0.223859 0 0 0.223859 0 0.500001V1.5C0 1.77614 0.223859 2 0.500001 2L23.5 2ZM23.5 10C23.7761 10 24 9.77615 24 9.50001V8.5C24 8.22386 23.7761 8 23.5 8L0.500001 8.00001C0.223859 8.00001 0 8.22386 0 8.50001V9.50001C0 9.77615 0.223859 10 0.500001 10L23.5 10Z" fill="white"/>
</svg>
