<svg width="32" height="32" viewBox="0 0 32 32" fill="none" xmlns="http://www.w3.org/2000/svg">
<mask id="mask0_919_808" style="mask-type:alpha" maskUnits="userSpaceOnUse" x="0" y="0" width="32" height="32">
<path fill-rule="evenodd" clip-rule="evenodd" d="M24 6.66673H8C7.26362 6.66673 6.66667 7.26368 6.66667 8.00006V24.0001C6.66667 24.7364 7.26362 25.3334 8 25.3334H24C24.7364 25.3334 25.3333 24.7364 25.3333 24.0001V8.00006C25.3333 7.26368 24.7364 6.66673 24 6.66673ZM8 4.00006C5.79086 4.00006 4 5.79092 4 8.00006V24.0001C4 26.2092 5.79086 28.0001 8 28.0001H24C26.2091 28.0001 28 26.2092 28 24.0001V8.00006C28 5.79092 26.2091 4.00006 24 4.00006H8ZM9.33333 21.3659C9.33333 18.7643 13.7778 17.3334 16 17.3334C18.2222 17.3334 22.6667 18.7643 22.6667 21.3659V22.0001C22.6667 22.3683 22.3682 22.6667 22 22.6667H10C9.63181 22.6667 9.33333 22.3683 9.33333 22.0001V21.3659ZM16 15.3448C17.66 15.3448 19 14.0048 19 12.3448C19 10.6848 17.66 9.34479 16 9.34479C14.34 9.34479 13 10.6848 13 12.3448C13 14.0048 14.34 15.3448 16 15.3448Z" fill="#343434"/>
</mask>
<g mask="url(#mask0_919_808)">
<rect width="32" height="32" fill="#292929"/>
</g>
</svg>
