<svg width="32" height="32" viewBox="0 0 32 32" fill="none" xmlns="http://www.w3.org/2000/svg">
<mask id="mask0_642_1153" style="mask-type:alpha" maskUnits="userSpaceOnUse" x="0" y="0" width="32" height="32">
<path fill-rule="evenodd" clip-rule="evenodd" d="M6.93613 6.66667C7.29261 8.19742 7.95498 9.02811 8.64116 9.53226C9.63961 10.2658 11.1735 10.6667 13.3335 10.6667H14.3141C14.0547 9.76172 13.6648 8.99828 13.1869 8.40287C12.344 7.35283 11.113 6.66667 9.33349 6.66667H6.93613ZM9.33349 4C13.2275 4 15.8036 6.38469 16.8308 9.77335C18.3843 7.86648 20.6405 6.66667 23.1515 6.66667L26.6559 6.66668C27.3925 6.66667 27.9967 7.26688 27.9356 8.00092C27.4614 13.6988 23.9002 16 19.566 16H17.3333V17.3333H24H26C26.3682 17.3333 26.6667 17.6318 26.6667 18V19.3333C26.6667 19.7015 26.3682 20 26 20H24V25.3333C24 27.5425 22.2091 29.3333 20 29.3333H12C9.79086 29.3333 8 27.5425 8 25.3333V20H6C5.63181 20 5.33333 19.7015 5.33333 19.3333V18C5.33333 17.6318 5.63181 17.3333 6 17.3333H8H14.6667V16V13.3333H13.3335C8.50515 13.3333 4.53314 11.5947 4.04959 5.33252C3.9929 4.59832 4.59712 4 5.3335 4H9.33349ZM19.566 13.3333H17.8113C18.7427 10.8879 20.907 9.33333 23.1515 9.33333L25.0313 9.33334C24.6916 10.7032 24.0956 11.5662 23.4557 12.1187C22.5722 12.8814 21.278 13.3333 19.566 13.3333ZM10.6667 20V25.3333C10.6667 26.0697 11.2636 26.6667 12 26.6667H20C20.7364 26.6667 21.3333 26.0697 21.3333 25.3333V20H10.6667Z" fill="#343434"/>
</mask>
<g mask="url(#mask0_642_1153)">
<rect width="32" height="32" fill="#292929"/>
</g>
</svg>
