<svg width="49" height="48" viewBox="0 0 49 48" fill="none" xmlns="http://www.w3.org/2000/svg">
<g id="Frame">
<g id="SVGRepo_iconCarrier">
<path id="Vector" d="M33.5781 18.3719C32.6484 18.0332 31.6656 17.8632 30.6761 17.8699C27.4761 17.8699 25.2161 19.4819 25.2001 21.7959C25.1801 23.4959 26.8061 24.4539 28.0361 25.0219C29.2981 25.6059 29.7201 25.9739 29.7161 26.4959C29.7081 27.2899 28.7081 27.6499 27.7781 27.6499C26.5001 27.6499 25.8021 27.4719 24.7281 27.0259L24.3301 26.8399L23.8761 29.5039C24.6541 29.8279 26.0561 30.1059 27.5041 30.1299C30.9061 30.1299 33.1301 28.5279 33.1561 26.0659C33.1841 24.7079 32.3041 23.6819 30.4521 22.8339C29.3261 22.2839 28.6281 21.9159 28.6281 21.3579C28.6281 20.8639 29.2261 20.3359 30.4761 20.3359C31.308 20.3158 32.1348 20.4719 32.9021 20.7939L33.2021 20.9279L33.6561 18.3539L33.5781 18.3719ZM41.8821 18.0859H39.3821C38.6041 18.0859 38.0181 18.2999 37.6781 19.0719L32.8701 29.9639H36.2721L36.9521 28.1779L41.1041 28.1819C41.2021 28.5999 41.5021 29.9639 41.5021 29.9639H44.5021L41.8821 18.0859ZM20.5981 17.9859H23.8401L21.8121 29.8699H18.5741L20.5981 17.9819V17.9859ZM12.3681 24.5359L12.7041 26.1859L15.8721 18.0859H19.3061L14.2041 29.9479H10.7781L7.97809 19.9039C7.93274 19.7383 7.82624 19.5961 7.68009 19.5059C6.6709 18.9846 5.60158 18.589 4.49609 18.3279L4.54009 18.0779H9.75809C10.4661 18.1059 11.0361 18.3279 11.2261 19.0839L12.3661 24.5419L12.3681 24.5359ZM37.8821 25.7479L39.1741 22.4239C39.1581 22.4599 39.4401 21.7379 39.6041 21.2919L39.8261 22.3179L40.5761 25.7459H37.8801L37.8821 25.7479Z" fill="white"/>
</g>
</g>
</svg>
