<svg width="32" height="32" viewBox="0 0 32 32" fill="none" xmlns="http://www.w3.org/2000/svg">
<mask id="mask0_541_1096" style="mask-type:alpha" maskUnits="userSpaceOnUse" x="0" y="0" width="32" height="32">
<path d="M30.75 16C30.75 24.1462 24.1462 30.75 16 30.75C7.8538 30.75 1.25 24.1462 1.25 16C1.25 7.8538 7.8538 1.25 16 1.25C24.1462 1.25 30.75 7.8538 30.75 16Z" stroke="#464646" stroke-width="1.5" stroke-linecap="round" stroke-linejoin="round"/>
<path d="M24.5 24C24.5 24 19.825 23.46 19 22.5C18.535 21.96 19 20 19 20C20 19.5 20.75 17.55 21 16.5C21.22 15.565 21.39 13.955 21.5 13C21.625 11.9 21.605 11.28 21.5 10.5C21.19 8.195 18.82 6.5 16 6.5C13.18 6.5 10.81 8.195 10.5 10.5C10.395 11.28 10.375 11.9 10.5 13C10.61 13.955 10.78 15.565 11 16.5C11.25 17.55 12 19.5 13 20C13 20 13.465 21.96 13 22.5C12.175 23.46 7.5 24 7.5 24" stroke="#464646" stroke-width="1.5" stroke-linecap="round" stroke-linejoin="round"/>
</mask>
<g mask="url(#mask0_541_1096)">
<rect width="32" height="32" fill="#6E5DC6"/>
</g>
</svg>
