<svg width="24" height="24" viewBox="0 0 24 24" fill="none" xmlns="http://www.w3.org/2000/svg">
<path fill-rule="evenodd" clip-rule="evenodd" d="M19 6H5C4.44772 6 4 6.44772 4 7V8H12H20V7C20 6.44771 19.5523 6 19 6ZM22 8V10V17C22 18.6569 20.6569 20 19 20H5C3.34315 20 2 18.6569 2 17V10V8V7C2 5.34315 3.34315 4 5 4H19C20.6569 4 22 5.34315 22 7V8ZM4 10V17C4 17.5523 4.44772 18 5 18H19C19.5523 18 20 17.5523 20 17V10H12H4ZM6 13.5C6 13.2239 6.22386 13 6.5 13H9.5C9.77614 13 10 13.2239 10 13.5V15.5C10 15.7761 9.77614 16 9.5 16H6.5C6.22386 16 6 15.7761 6 15.5V13.5Z" fill="#343434"/>
</svg>
