<svg width="32" height="32" viewBox="0 0 32 32" fill="none" xmlns="http://www.w3.org/2000/svg">
<mask id="mask0_541_1064" style="mask-type:alpha" maskUnits="userSpaceOnUse" x="0" y="0" width="32" height="32">
<path fill-rule="evenodd" clip-rule="evenodd" d="M19.0034 5.15961L18.4835 4.74803C17.0287 3.59628 14.9727 3.59628 13.5179 4.74803L12.9943 5.15654L2.92537 13.1319C2.642 13.3563 2.58914 13.7657 2.80621 14.0548L3.64047 15.1657C3.86626 15.4664 4.29592 15.521 4.58969 15.2862L5.33402 14.6915V24.1158C5.33402 26.3249 7.12489 28.1158 9.33403 28.1158L13.9968 28.1158L14.0007 28.1158L22.6674 28.1158C24.8765 28.1158 26.6674 26.3249 26.6674 24.1158V14.6926L27.4104 15.2862C27.7042 15.521 28.1338 15.4664 28.3596 15.1657L29.1939 14.0548C29.4109 13.7657 29.3581 13.3563 29.0747 13.1319L24.0007 9.11288V6.00002C24.0007 5.63183 23.7022 5.33335 23.334 5.33335H22.0007C21.6325 5.33335 21.334 5.63183 21.334 6.00002V7.00068L19.0058 5.15654L19.0034 5.15961ZM8.00069 13.162V24.1158C8.00069 24.8522 8.59764 25.4491 9.33402 25.4491L13.334 25.4491V19.3334C13.334 18.9652 13.6325 18.6667 14.0007 18.6667H18.0007C18.3689 18.6667 18.6674 18.9652 18.6674 19.3334V25.4491L22.6674 25.4491C23.4037 25.4491 24.0007 24.8522 24.0007 24.1158V13.162C24.0007 12.8557 23.8954 12.5621 23.7074 12.3277L16.8283 6.83882C16.3433 6.4549 15.658 6.4549 15.1731 6.83882L8.29628 12.3248C8.10684 12.5596 8.00069 12.8544 8.00069 13.162Z" fill="#343434"/>
</mask>
<g mask="url(#mask0_541_1064)">
<rect width="32" height="32" fill="#6E5DC6"/>
</g>
</svg>
