<svg width="32" height="32" viewBox="0 0 32 32" fill="none" xmlns="http://www.w3.org/2000/svg">
<mask id="mask0_541_1082" style="mask-type:alpha" maskUnits="userSpaceOnUse" x="0" y="0" width="32" height="32">
<path fill-rule="evenodd" clip-rule="evenodd" d="M15.8581 24.4978L15.8619 24.5013L16.0069 24.6333L16.14 24.5131L16.1428 24.5105C19.6291 21.3424 22.3058 18.9042 24.1437 16.6556C25.9514 14.444 26.6667 12.744 26.6667 11.0999C26.6667 8.46603 24.634 6.43327 22.0001 6.43327C20.4875 6.43327 18.9941 7.15043 18.0304 8.28217L16.1524 10.4875C16.0725 10.5813 15.9277 10.5813 15.8478 10.4875L13.9698 8.28217C13.0061 7.15043 11.5127 6.43327 10.0001 6.43327C7.36617 6.43327 5.33341 8.46603 5.33341 11.0999C5.33341 12.744 6.04873 14.4439 7.85589 16.6533C9.69366 18.9001 12.3711 21.3358 15.8581 24.4978ZM17.9334 26.4866L16.4487 27.828C16.1942 28.0579 15.8067 28.0572 15.553 27.8263L14.0667 26.4733L14.0498 26.4579C7.19265 20.2399 2.66675 16.1358 2.66675 11.0999C2.66675 6.99327 5.89341 3.7666 10.0001 3.7666C11.463 3.7666 12.8889 4.19604 14.1071 4.94126C14.7533 5.33658 15.3411 5.82076 15.8451 6.37684C15.9278 6.4681 16.0724 6.4681 16.1551 6.37684C16.659 5.82076 17.2468 5.33658 17.8931 4.94126C19.1113 4.19604 20.5371 3.7666 22.0001 3.7666C26.1067 3.7666 29.3334 6.99327 29.3334 11.0999C29.3334 16.127 24.8232 20.2256 17.986 26.4388L17.9334 26.4866Z" fill="#343434"/>
</mask>
<g mask="url(#mask0_541_1082)">
<rect width="32" height="32" fill="#6E5DC6"/>
</g>
</svg>
