<svg width="32" height="32" viewBox="0 0 32 32" fill="none" xmlns="http://www.w3.org/2000/svg">
<mask id="mask0_541_1089" style="mask-type:alpha" maskUnits="userSpaceOnUse" x="0" y="0" width="32" height="32">
<path d="M6.66658 3.33331H21.3333C23.1742 3.33331 24.6666 4.8257 24.6666 6.66665V10.6666H22.6666V6.66665C22.6666 5.93027 22.0696 5.33331 21.3333 5.33331H6.66658C5.93021 5.33331 5.33325 5.93027 5.33325 6.66665V16C5.33325 16.7364 5.93021 17.3333 6.66658 17.3333V19.3333C4.82564 19.3333 3.33325 17.8409 3.33325 16V6.66665C3.33325 4.8257 4.82564 3.33331 6.66658 3.33331Z" fill="#343434"/>
<path d="M19.9999 9.99998C19.9999 10.3682 19.7014 10.6666 19.3333 10.6666H8.66658C8.2984 10.6666 7.99992 10.3682 7.99992 9.99998V9.33331C7.99992 8.96512 8.2984 8.66665 8.66658 8.66665H19.3333C19.7014 8.66665 19.9999 8.96512 19.9999 9.33331V9.99998Z" fill="#343434"/>
<path d="M13.9999 18C13.6317 18 13.3333 18.2985 13.3333 18.6666V19.3333C13.3333 19.7015 13.6317 20 13.9999 20H24.6666C25.0348 20 25.3333 19.7015 25.3333 19.3333V18.6666C25.3333 18.2985 25.0348 18 24.6666 18H13.9999Z" fill="#343434"/>
<path d="M13.3333 22C13.3333 21.6318 13.6317 21.3333 13.9999 21.3333H24.6666C25.0348 21.3333 25.3333 21.6318 25.3333 22V22.6666C25.3333 23.0348 25.0348 23.3333 24.6666 23.3333H13.9999C13.6317 23.3333 13.3333 23.0348 13.3333 22.6666V22Z" fill="#343434"/>
<path fill-rule="evenodd" clip-rule="evenodd" d="M26.6666 28.6666H15.2721L12.8125 30.3064C11.0403 31.4879 8.66658 30.2175 8.66658 28.0876V16C8.66658 14.159 10.159 12.6666 11.9999 12.6666H26.6666C28.5075 12.6666 29.9999 14.159 29.9999 16V25.3333C29.9999 27.1743 28.5075 28.6666 26.6666 28.6666ZM11.9999 14.6666C11.2635 14.6666 10.6666 15.2636 10.6666 16V28.0876C10.6666 28.6201 11.26 28.9377 11.7031 28.6423L14.6666 26.6666H26.6666C27.403 26.6666 27.9999 26.0697 27.9999 25.3333V16C27.9999 15.2636 27.403 14.6666 26.6666 14.6666H11.9999Z" fill="#343434"/>
</mask>
<g mask="url(#mask0_541_1089)">
<rect width="32" height="32" fill="#6E5DC6"/>
</g>
</svg>
