<svg width="32" height="32" viewBox="0 0 32 32" fill="none" xmlns="http://www.w3.org/2000/svg">
<g id="Icon">
<path id="Icon_2" fill-rule="evenodd" clip-rule="evenodd" d="M10.522 10.3265L8.55712 8.36155C9.77983 7.17016 11.2781 6.28249 12.9316 5.78548C15.2265 5.09564 17.6869 5.19855 19.9163 6.07762C22.1457 6.95668 24.0141 8.56071 25.2207 10.6312C26.4272 12.7018 26.9015 15.1182 26.5672 17.4912C26.2328 19.8642 25.1093 22.0555 23.3776 23.712C21.646 25.3686 19.407 26.3939 17.0216 26.6227C14.6361 26.8516 12.243 26.2707 10.228 24.9736C8.35342 23.7668 6.90755 22.0057 6.08759 19.9415C5.98564 19.6848 5.70225 19.5454 5.44113 19.6352L3.86457 20.1774C3.60344 20.2673 3.46367 20.5522 3.56321 20.8098C4.57966 23.4402 6.40594 25.6852 8.78435 27.2163C11.3031 28.8376 14.2944 29.5638 17.2763 29.2777C20.2581 28.9917 23.0568 27.71 25.2214 25.6394C27.3859 23.5687 28.7903 20.8295 29.2083 17.8633C29.6262 14.8971 29.0333 11.8765 27.5252 9.28838C26.017 6.70022 23.6814 4.69518 20.8947 3.59635C18.108 2.49751 15.0325 2.36888 12.1638 3.23118C10.0858 3.8558 8.20389 4.97403 6.671 6.47543L6.62082 6.42525L4.60522 4.40965C4.47922 4.28366 4.2638 4.37289 4.2638 4.55107L4.2638 10.3346C4.2638 10.5187 4.41304 10.6679 4.59713 10.6679L10.3806 10.6679C10.5588 10.6679 10.648 10.4525 10.522 10.3265ZM16 9.33335C16.3682 9.33335 16.6667 9.63183 16.6667 10L16.6667 16.1123L21.3835 20.8292C21.6439 21.0895 21.6439 21.5116 21.3835 21.772L20.9121 22.2434C20.6518 22.5037 20.2297 22.5037 19.9693 22.2434L14.9122 17.1863C14.7624 17.064 14.6667 16.8779 14.6667 16.6694V10C14.6667 9.63183 14.9651 9.33335 15.3333 9.33335H16Z" fill="#343434"/>
</g>
</svg>
